<?xml version="1.0" encoding="utf-8"?>
<svg version="1.1" xmlns:xlink="http://www.w3.org/1999/xlink" width="169px" height="43px" xmlns="http://www.w3.org/2000/svg">
  <defs>
    <linearGradient gradientUnits="userSpaceOnUse" x1="84.5" y1="0" x2="84.5" y2="43" id="LinearGradient13">
      <stop id="Stop14" stop-color="#c6a573" offset="0" />
      <stop id="Stop15" stop-color="#f2f2f2" offset="0" />
      <stop id="Stop16" stop-color="#e4e4e4" offset="1" />
      <stop id="Stop17" stop-color="#ffffff" offset="1" />
    </linearGradient>
    <mask fill="white" id="clip18">
      <path d="M 0 26  L 0 17  C 0 7.48000000000002  7.48000000000002 0  17 0  L 152 0  C 161.52 0  169 7.48000000000002  169 17  L 169 26  C 169 35.52  161.52 43  152 43  L 110.200000000001 43  L 17 43  C 7.48000000000002 43  0 35.52  0 26  Z " fill-rule="evenodd" />
    </mask>
  </defs>
  <g transform="matrix(1 0 0 1 -719 -1096 )">
    <path d="M 0 26  L 0 17  C 0 7.48000000000002  7.48000000000002 0  17 0  L 152 0  C 161.52 0  169 7.48000000000002  169 17  L 169 26  C 169 35.52  161.52 43  152 43  L 110.200000000001 43  L 17 43  C 7.48000000000002 43  0 35.52  0 26  Z " fill-rule="nonzero" fill="url(#LinearGradient13)" stroke="none" transform="matrix(1 0 0 1 719 1096 )" />
    <path d="M 0 26  L 0 17  C 0 7.48000000000002  7.48000000000002 0  17 0  L 152 0  C 161.52 0  169 7.48000000000002  169 17  L 169 26  C 169 35.52  161.52 43  152 43  L 110.200000000001 43  L 17 43  C 7.48000000000002 43  0 35.52  0 26  Z " stroke-width="2" stroke="#797979" fill="none" transform="matrix(1 0 0 1 719 1096 )" mask="url(#clip18)" />
  </g>
</svg>