<?xml version="1.0" encoding="utf-8"?>
<svg version="1.1" xmlns:xlink="http://www.w3.org/1999/xlink" width="172px" height="107px" xmlns="http://www.w3.org/2000/svg">
  <g transform="matrix(1 0 0 1 -84 -2072 )">
    <path d="M 94.5 2178.5  L 255.5 2178.5  L 255.5 2082.5  L 250.5 2082.5  L 250.5 2077.5  L 245.5 2077.5  L 245.5 2072.5  L 84.5 2072.5  L 84.5 2168.5  L 89.5 2168.5  L 89.5 2173.5  L 94.5 2173.5  L 94.5 2178.5  Z " fill-rule="nonzero" fill="#b9ddf1" stroke="none" />
    <path d="M 94.5 2178.5  L 255.5 2178.5  L 255.5 2082.5  L 250.5 2082.5  L 250.5 2077.5  L 245.5 2077.5  L 245.5 2072.5  L 84.5 2072.5  L 84.5 2168.5  L 89.5 2168.5  L 89.5 2173.5  L 94.5 2173.5  L 94.5 2178.5  Z " stroke-width="1" stroke="#797979" fill="none" />
    <path d="M 250.5 2083  L 250.5 2173.5  L 95 2173.5  M 245.5 2078  L 245.5 2168.5  L 90 2168.5  " stroke-width="1" stroke="#797979" fill="none" />
  </g>
</svg>