<?xml version="1.0" encoding="utf-8"?>
<svg version="1.1" xmlns:xlink="http://www.w3.org/1999/xlink" width="172px" height="107px" xmlns="http://www.w3.org/2000/svg">
  <g transform="matrix(1 0 0 1 -82 -2400 )">
    <path d="M 92.5 2506.5  L 253.5 2506.5  L 253.5 2410.5  L 248.5 2410.5  L 248.5 2405.5  L 243.5 2405.5  L 243.5 2400.5  L 82.5 2400.5  L 82.5 2496.5  L 87.5 2496.5  L 87.5 2501.5  L 92.5 2501.5  L 92.5 2506.5  Z " fill-rule="nonzero" fill="#1c93d5" stroke="none" />
    <path d="M 92.5 2506.5  L 253.5 2506.5  L 253.5 2410.5  L 248.5 2410.5  L 248.5 2405.5  L 243.5 2405.5  L 243.5 2400.5  L 82.5 2400.5  L 82.5 2496.5  L 87.5 2496.5  L 87.5 2501.5  L 92.5 2501.5  L 92.5 2506.5  Z " stroke-width="1" stroke="#3f3f3f" fill="none" />
    <path d="M 248.5 2411  L 248.5 2501.5  L 93 2501.5  M 243.5 2406  L 243.5 2496.5  L 88 2496.5  " stroke-width="1" stroke="#3f3f3f" fill="none" />
  </g>
</svg>