<?xml version="1.0" encoding="utf-8"?>
<svg version="1.1" xmlns:xlink="http://www.w3.org/1999/xlink" width="22px" height="528px" xmlns="http://www.w3.org/2000/svg">
  <g transform="matrix(1 0 0 1 -158 -403 )">
    <path d="M 169 413  A 3.5 3.5 0 0 0 165.5 416.5 A 3.5 3.5 0 0 0 169 420 A 3.5 3.5 0 0 0 172.5 416.5 A 3.5 3.5 0 0 0 169 413 Z M 169 415  A 1.5 1.5 0 0 1 170.5 416.5 A 1.5 1.5 0 0 1 169 418 A 1.5 1.5 0 0 1 167.5 416.5 A 1.5 1.5 0 0 1 169 415 Z M 161.4 914  L 169 921  L 176.6 914  L 161.4 914  Z " fill-rule="nonzero" fill="#0099cc" stroke="none" />
    <path d="M 169 419  L 169 915  " stroke-width="2" stroke="#0099cc" fill="none" />
  </g>
</svg>