<?xml version="1.0" encoding="utf-8"?>
<svg version="1.1" xmlns:xlink="http://www.w3.org/1999/xlink" width="119px" height="116px" xmlns="http://www.w3.org/2000/svg">
  <g transform="matrix(1 0 0 1 -402 -296 )">
    <path d="M 402 296  L 521 296  L 521 412  L 402 412  L 402 296  " fill-rule="nonzero" fill="#cccccc" stroke="none" />
    <path d="M 410 304  L 513 304  L 513 404  L 410 404  L 410 304  " fill-rule="nonzero" fill="#ffffff" stroke="none" />
    <path d="M 472.58 330.8  C 467.708 330.8  463.88 326.972  463.88 322.1  C 463.88 317.228  467.708 313.4  472.58 313.4  C 477.452 313.4  481.28 317.228  481.28 322.1  C 481.28 326.972  477.452 330.8  472.58 330.8  " fill-rule="nonzero" fill="#cccccc" stroke="none" />
    <path d="M 413 401  L 413 349.3  L 437.25 325.8  L 471.2 346.021848739496  L 490.6 339.9  L 510 346.021848739496  L 510 401  L 413 401  " fill-rule="nonzero" fill="#169bd5" stroke="none" />
  </g>
</svg>