<?xml version="1.0" encoding="utf-8"?>
<svg version="1.1" xmlns:xlink="http://www.w3.org/1999/xlink" width="161px" height="89px" xmlns="http://www.w3.org/2000/svg">
  <g transform="matrix(1 0 0 1 -357 -450 )">
    <path d="M 357 450  L 518 450  L 518 539  L 357 539  L 357 450  " fill-rule="nonzero" fill="#cccccc" stroke="none" />
    <path d="M 363 456  L 512 456  L 512 533  L 363 533  L 363 456  " fill-rule="nonzero" fill="#ffffff" stroke="none" />
    <path d="M 447.395 476.7  C 443.657 476.7  440.72 473.763  440.72 470.025  C 440.72 466.287  443.657 463.35  447.395 463.35  C 451.133 463.35  454.07 466.287  454.07 470.025  C 454.07 473.763  451.133 476.7  447.395 476.7  " fill-rule="nonzero" fill="#cccccc" stroke="none" />
    <path d="M 365 531  L 365 490.85  L 401.25 472.6  L 452 506.787577639752  L 481 483.55  L 510 506.787577639752  L 510 531  L 365 531  " fill-rule="nonzero" fill="#169bd5" stroke="none" />
  </g>
</svg>